<?xml version="1.0" encoding="utf-8"?>
<!-- Generator: Adobe Illustrator 24.3.0, SVG Export Plug-In . SVG Version: 6.00 Build 0)  -->
<svg version="1.1" id="Layer_1" xmlns="http://www.w3.org/2000/svg" xmlns:xlink="http://www.w3.org/1999/xlink" x="0px" y="0px"
	 viewBox="0 0 2160 2160" style="enable-background:new 0 0 2160 2160;" xml:space="preserve">
<style type="text/css">
	.st0{fill:#00ACEC;}
	.st1{fill:#624099;}
	.st2{fill:#EE4C8E;}
	.st3{fill:#99CA3C;}
	.st4{fill:#FAA61A;}
	.st5{fill:#F36F21;}
	.st6{fill:#D71921;}
	.st7{fill:#069EDB;}
</style>
<g>
	<g>
		<g>
			<path class="st0" d="M99.2,1357.7c3.5-36.3,5.9-65.3,7.2-87.1c1.9-32.5,3.8-74.5,5.8-126c1.4-39.5,2.2-67.7,2.2-84.7v-27.9
				c18.6,0.5,34.7,0.7,48.2,0.7c13,0,30.1-0.4,51.3-1.1c21.2-0.7,41-1.1,59.7-1.1c21.3,0,40,1.3,56.1,3.8c16.1,2.5,31.1,7.8,45,15.8
				c13.9,8,25.6,18.4,35,31.3c9.4,12.9,16.5,28,21.5,45.2c4.9,17.3,7.4,35.1,7.4,53.4c0,18-1.9,35.3-5.7,51.9
				c-3.8,16.6-9.2,31.6-16,45c-6.8,13.4-14.8,24.9-24,34.5c-9.2,9.6-19.6,17.9-31.4,24.7c-8.8,5.1-17.6,9.1-26.5,11.9
				c-8.9,2.9-21.1,5.2-36.5,6.9c-17.2,1.9-36.7,2.9-58.5,2.9l-96.4-0.7C134.3,1356.9,119.6,1357.2,99.2,1357.7z M202.4,1285.8
				c8.7,0.8,17.9,1.2,27.4,1.2c16.2,0,30.7-1.4,43.4-4.3c12.7-2.9,23.9-9,33.5-18.4c9.6-9.4,16.7-21.4,21.4-36.2
				c4.6-14.7,6.9-29.8,6.9-45.2c0-18.9-3.4-34.9-10.3-47.9c-6.8-13-16-22-27.3-27.1c-11.4-5.1-26.9-7.6-46.4-7.6
				c-11.5,0-25,0.5-40.6,1.4L202.4,1285.8z"/>
			<path class="st0" d="M710.3,1285.6c-2.1,9.5-6.1,32.6-11.9,69.2c-18.5,3.7-34,6.1-46.5,7.3c-12.6,1.2-25.3,1.8-38.2,1.8
				c-18.9,0-36.4-1.3-52.3-3.9c-15.9-2.6-29.6-7.3-41.2-14c-11.5-6.7-21.2-15-29-24.9c-7.8-9.9-13.7-21.7-17.8-35.4
				c-4.1-13.7-6.1-27.7-6.1-42.2c0-20.4,4.1-40.3,12.2-59.7c8.1-19.5,18.6-34.7,31.4-45.7c12.8-11,27.6-18.8,44.3-23.4
				c16.7-4.6,33.8-6.9,51.3-6.9c18.1,0,35.4,2.1,51.9,6.3c16.5,4.2,30.4,11.6,41.9,22.1c11.5,10.5,19.6,22.4,24.5,35.6
				c4.9,13.2,7.3,27.5,7.3,42.7c0,9.1-1,19.2-3.1,30.3l-167.3,0.2c-0.2,2.5-0.2,4.8-0.2,6.9c0,17.1,6.1,29.7,18.4,37.8
				c12.3,8.1,27.2,12.1,44.9,12.1c10.5,0,22.5-1.2,35.9-3.7C674,1295.6,690.6,1291.5,710.3,1285.6z M563.5,1208.5h78.8
				c0.2-2.7,0.2-5,0.2-6.9c0-8.3-1.5-15.4-4.4-21.2c-2.9-5.9-7.2-10.2-12.7-12.9c-5.5-2.7-11.7-4.1-18.5-4.1
				c-4.8,0-9.4,0.8-13.8,2.3c-4.5,1.5-8.5,3.7-12.1,6.7c-3.6,2.9-6.6,6.3-9,10.1c-2.4,3.8-4.1,7.5-5.3,11.1
				C565.8,1197.1,564.6,1202.1,563.5,1208.5z"/>
			<path class="st0" d="M829.1,1357.7l-25.3-78.3l-57.1-165.4c18.2,0.3,35,0.5,50.7,0.5c16.2,0,31.5-0.2,45.9-0.5
				c2.7,11,8,30.2,16,57.7c8,27.5,16.7,60.1,26.3,98l6.2-19.8c1-2.4,4.7-12.6,11.2-30.6l37.9-105.3c17.2,0.3,33.4,0.5,48.7,0.5
				c15.7,0,32.1-0.2,49.1-0.5l-32.9,70.9l-61.3,140.8l-13.1,32c-18.8-0.3-35.3-0.5-49.7-0.5C866,1357.2,848.5,1357.3,829.1,1357.7z"
				/>
		</g>
		<g>
			<path class="st0" d="M1536.8,1469.4c3-32.6,5.6-65.2,7.6-97.6c3.7-55.5,6.2-102.1,7.5-139.8c1.3-37.6,2-74.9,2-111.8
				c32.3-4.9,57.6-8.2,75.9-9.9c18.3-1.7,36.6-2.5,54.9-2.5c22.9,0,44,2.4,63.3,7.2c19.3,4.8,34.7,13.2,46.4,25.3
				c11.7,12.1,20.5,26.5,26.4,43.2c5.9,16.7,8.8,34.2,8.8,52.5c0,16.7-2.4,32.9-7.2,48.6c-4.8,15.7-12.1,29.8-21.9,42.4
				c-9.9,12.6-21.2,21.9-34,27.9c-12.8,6-27.1,9.1-42.8,9.1c-7.8,0-15.9-0.8-24.2-2.3c-8.3-1.5-16.3-3.7-23.7-6.6
				c-7.5-2.9-13.7-5.8-18.7-8.7c-5-2.9-11.2-7.2-18.7-12.8l-2.7,66.6c-1.1,30.6-1.7,53.6-1.7,69.2c-18.5-0.3-34.3-0.5-47.6-0.5
				C1575,1468.9,1558.5,1469.1,1536.8,1469.4z M1646.8,1181c-1.3,7.2-2.2,13-2.6,17.5c-0.5,4.5-1,10.7-1.4,18.4
				c-0.5,7.7-0.7,13.9-0.7,18.5c0,13.1,2,24,6.1,32.8c4.1,8.8,9.7,15.7,17,20.5c7.2,4.9,15,7.3,23.3,7.3c8.8,0,16.8-2.5,24.1-7.5
				c7.3-5,13.1-12.5,17.4-22.6c4.3-10,6.4-21.3,6.4-33.9c0-17-4.5-30.7-13.5-41.1c-9-10.3-22.1-15.5-39.3-15.5
				C1672.8,1175.5,1660.5,1177.4,1646.8,1181z"/>
			<path class="st0" d="M1863.1,1353.1c-0.6-7-1.3-14.4-1.9-22.1c-0.6-7.7-1.7-18.3-3.1-31.9l-1.9-17.2
				c15.4,6.1,28.7,10.5,39.8,13.5c11.1,2.9,21.4,4.4,30.7,4.4c7.8,0,14.1-0.7,18.9-2.1c4.8-1.4,8.4-3.5,10.6-6.2
				c2.2-2.7,3.3-5.5,3.3-8.4c0-2.5-0.8-5.1-2.5-7.5c-1.7-2.5-5.4-5.8-11.3-10.1c-13-9.5-24.5-18.2-34.4-26
				c-9.9-7.8-17.4-14.7-22.4-20.8c-5-6-8.8-12.6-11.4-19.6c-2.6-7-3.9-14.2-3.9-21.7c0-13.2,3.8-25.5,11.3-37
				c7.6-11.5,18.7-19.8,33.4-24.9c14.7-5.2,32.7-7.8,53.8-7.8c22.1,0,50.4,2.9,84.7,8.6l3.8,66.8c-19.3-7.6-37.8-11.5-55.6-11.5
				c-12.6,0-21.7,1.3-27.3,3.9c-5.7,2.6-8.5,6.5-8.5,11.9c0,1.8,0.3,3.4,1,5c0.6,1.6,1.8,3.3,3.5,5c1.7,1.8,3.7,3.5,6.2,5.4
				c2.5,1.8,8.5,6.1,18,12.8c9.5,6.7,17,12.2,22.4,16.5c8.9,7,15.7,13.5,20.4,19.5c4.7,6,8.3,12.3,10.7,19.1
				c2.5,6.8,3.7,13.9,3.7,21.4c0,11.3-2.7,21.7-8.2,31.2c-5.5,9.5-13.8,17.4-24.8,23.8c-11.1,6.4-23,10.8-35.9,13.2
				c-12.9,2.5-26.2,3.7-39.9,3.7c-9.2,0-20.8-0.8-34.7-2.4C1897.8,1359.9,1881.6,1357.1,1863.1,1353.1z"/>
		</g>
		<path class="st0" d="M638.1,1012.1c4-37.6,6.9-68.2,8.6-91.9c3.4-43.3,5.9-86.3,7.6-129c1.7-42.7,2.5-77.7,2.5-104.9
			c21.6,0.3,40.8,0.5,57.5,0.5c11.3,0,27.5-0.2,48.7-0.5l-5.8,86.4L750,907.8l-1,33.2c27.4,0.5,45.2,0.7,53.5,0.7
			c41.9,0,73.6-0.6,95-1.7l-5.3,72.1c-41.9-0.3-81.7-0.5-119.6-0.5C721.5,1011.6,676.6,1011.8,638.1,1012.1z"/>
		<path class="st0" d="M1333.1,945.6c20.5,7,38.6,11.9,54.2,14.7c15.6,2.8,29.2,4.2,40.8,4.2c8.4,0,16.1-0.9,22.9-2.7
			c6.8-1.8,12.3-4.1,16.5-6.8c4.1-2.7,7.7-6.1,10.6-10.3c2.9-4.1,5.2-8.8,6.8-13.8c1.6-5.1,2.7-11,3.3-17.7
			c0.6-6.7,1.2-15.9,1.7-27.7c-6.2,5.6-11.6,10-16.1,13.4c-4.5,3.3-10.1,6.6-16.8,9.7c-6.7,3.1-14,5.5-21.8,7.2
			c-7.9,1.7-16.2,2.5-24.9,2.5c-20.2,0-38.4-4.7-54.7-14.1c-16.2-9.4-28.3-22.5-36.3-39.4c-8-16.9-11.9-35.1-11.9-54.7
			c0-23.1,4.3-43.9,12.9-62.5s20.9-34.4,36.9-47.3c16-12.9,33.5-21.8,52.6-26.7c19.1-4.9,40.7-7.4,64.9-7.4
			c13.8,0,29.5,0.8,47.1,2.5c17.6,1.7,41.7,5.3,72.4,10.9l-5.6,78.8l-4.9,86.4c-0.3,6.2-0.5,11.3-0.5,15.3l-1.9,77.6
			c-0.3,9.9-1.5,19.3-3.6,28.2c-1.8,8.1-4.7,15.7-8.8,22.7c-4.1,7-9.2,13.1-15.3,18.4c-6.7,5.7-14.2,10.3-22.4,13.6
			c-8.4,3.5-18.4,6.4-29.8,8.6c-12.4,2.2-25.4,3.3-38.9,3.3c-7.6,0-17-0.4-28.2-1.1c-11.1-0.7-22.6-1.8-34.3-3.2
			c-11.7-1.4-21.8-2.9-30.3-4.5c-8.5-1.6-19.3-3.9-32.3-6.9l-1.7-31.5C1335.3,979,1334.5,965.8,1333.1,945.6z M1496.8,739.1
			c-9.8-1.9-18.7-2.9-26.4-2.9c-14.3,0-26.6,2.8-37,8.3c-10.4,5.5-18.5,13.7-24.2,24.6c-5.7,10.9-8.6,22.3-8.6,34.1
			c0,8.6,1.5,16.6,4.5,23.9c3,7.3,8,13.1,15,17.3c7,4.2,14.4,6.3,22.1,6.3c11.4,0,21.6-4.1,30.5-12.4c8.9-8.3,15-19.6,18.3-34
			C1494.5,790.1,1496.4,768.3,1496.8,739.1z"/>
		<g>
			<path class="st1" d="M1040.6,739.6c-0.4,0.2-0.9,0.5-1.3,0.7c-3.5,1.8-6.8,3.9-10.1,6.1c-3.3,2.2-6.4,4.6-9.5,7.2
				c-12.2,10.3-22.4,23.7-29.5,39.3c-1.8,3.9-3.4,7.9-4.8,12c-1.4,4.1-2.6,8.3-3.6,12.6c-1,4.3-1.7,8.7-2.2,13.1
				c-0.6,4.4-0.9,8.9-1,13.4c-0.1,4.5,0.1,9.1,0.5,13.6c0.4,4.5,1.2,9.1,2,13.7c0.9,4.6,2,9.1,3.5,13.6c1.4,4.5,3.1,8.9,5,13.3
				c7.6,17.6,19.6,33.8,34.7,47.9l-3.8,5.8c-17.9-11.5-33.5-26.8-45-44.9c-11.5-18.1-18.8-38.8-21.5-60.1
				c-2.7-21.3-0.8-43.1,5.7-63.7c3.2-10.3,7.5-20.2,12.8-29.6c5.4-9.3,11.7-18.2,19-26.1c6.5-7.1,13.7-13.5,21.4-19.1l20.3,12.8
				L1040.6,739.6z"/>
			<path class="st2" d="M1353.6,1124.8l-19.5,10.8l-10.6,15.2L1292,1129c-29.4-20.4-58.9-40.7-88.4-61.1l-4.3-2.9l-60.1-41.6
				l-2.7-1.9c-16.7-11.6-33.3-23.1-49.9-34.7l3.9-5.8c17.3,8.6,34.5,17.5,51.6,26.5l70.1,37.6c14.8,8.1,29.7,16.2,44.4,24.5
				c18.2,10.2,36.4,20.4,54.5,30.7c9.1,5.1,18.1,10.3,27.1,15.5l13.5,7.8L1353.6,1124.8z"/>
			<path class="st3" d="M1251,837.1c-0.5,7.8-1.5,15.5-3.2,23.1l-28.7,121.7l-14.1,59.5c2.4,1.3,4.8,2.7,7.3,4l-70.1-37.6
				c0.3,0.2,0.7,0.3,1,0.5c3.6-14,7.2-27.9,10.9-41.8l8-30.2c2.7-10.1,5.3-20.1,8.1-30.2l8.2-30.1l4.1-15.1l3.9-13.9
				c0.6-2.1,1.1-4.1,1.5-6.2l31.2,8.6L1251,837.1z"/>
			<path class="st3" d="M1199.4,1065l-2.2,9.3l-34.4,1.7l-31.5-20.8c2.7-10.6,5.4-21.2,8.1-31.8L1199.4,1065z"/>
			<path class="st4" d="M1197.2,1074.3l-35.6,150.5l-7.3,30.4l-0.9,3.8l-0.5,1.9l-0.4,1.8l-0.8,3.6l-0.7,3.7
				c-0.8,4.9-1.5,9.8-1.8,14.8c-0.7,9.9-0.2,19.8,1.3,29.6c0.4,2.7,1,5.5,1.6,8.2l-28.4,22.1l-34.8,7.2c-0.5-1.6-1-3.2-1.4-4.8
				c-2-7.2-3.7-14.6-5-22c-2.4-14.8-3.2-29.9-2.3-44.8c0.4-7.4,1.3-14.8,2.5-22.1l1-5.4c0.3-1.8,0.7-3.6,1.1-5.4l0.6-2.6l0.4-1.9
				l0.9-3.8l7.1-30.4c12-51.3,24.5-102.4,37.4-153.5l31.5,20.8L1197.2,1074.3z"/>
			<path class="st5" d="M1430.3,1425.6c-12.2,14.2-26.6,26.7-42.4,36.7c-3,2-6.1,3.7-9.2,5.6c-3.1,1.7-6.2,3.4-9.4,5
				c-3.2,1.6-6.4,3-9.6,4.5c-3.3,1.4-6.5,2.8-9.9,4c-6.7,2.5-13.5,4.6-20.5,6.4c-7,1.8-14.1,3.2-21.4,4.2
				c-28.9,4.2-59.1,1.5-87.1-7.4c-28-9.1-53.9-24.1-75.5-44c-10.8-9.9-20.5-21.1-29.1-33.2c-4.2-6.1-8.2-12.4-11.7-18.9
				c-3.6-6.5-6.8-13.3-9.6-20.2c-2.2-5.4-4.2-10.9-5.9-16.5l34.8-7.2l28.4-22.1c0.4,2.1,1,4.2,1.5,6.3c1.3,4.8,2.9,9.5,4.7,14.1
				c1.8,4.6,3.9,9.1,6.2,13.5c2.3,4.4,4.9,8.6,7.7,12.7c5.6,8.2,12,15.8,19.2,22.7c14.4,13.7,31.7,24.3,50.5,30.8
				c18.8,6.5,38.9,8.7,58.7,6.5c19.7-2.2,39-8.9,56.1-19c9.1-5.4,17.6-11.9,25.3-19.3l27.2,11.1L1430.3,1425.6z"/>
			<path class="st6" d="M1474.9,1322.9c-3,27.5-12.3,54.5-27.1,78.8c-5.2,8.4-11,16.4-17.5,23.9l-21-23.6l-27.2-11.1
				c6.7-6.4,12.6-13.5,17.8-21.2c11.1-16.5,18.6-35.5,21.8-55.2c3.2-19.7,2.2-40.1-3.1-59.4c-2.6-9.6-6.3-19-11-27.8
				c-2.4-4.4-5-8.7-7.8-12.8c-2.8-4.1-5.9-8.1-9.1-11.9c-6.5-7.6-13.9-14.4-21.9-20.4l-3-2.2l-3.1-2.2l-6.4-4.4l-12.9-8.9
				l-19.9-13.7l10.6-15.2l19.5-10.8h0l11.8,6.8l13.5,7.8l7,4.1l3.9,2.3l4.1,2.6c5.4,3.5,10.8,7.3,15.9,11.5
				c5.1,4.2,10.1,8.6,14.7,13.4c4.6,4.8,9.1,9.8,13.2,15.1c4.1,5.3,8,10.8,11.5,16.6c7,11.6,12.8,23.9,17.1,36.8
				C1475.1,1267.6,1478,1295.5,1474.9,1322.9z"/>
			<path class="st7" d="M1251,837.1L1251,837.1l-31.9,12.2l-31.2-8.6c2.2-10.7,2.7-21.3,1-32c-0.5-3.2-1.2-6.3-2-9.5
				c-0.8-3.1-1.8-6.2-3-9.3c-1.2-3.1-2.5-6.1-4.1-9.1c-1.6-3-3.2-5.9-5.1-8.8c-3.8-5.7-8.1-11.1-13.1-15.9
				c-4.9-5-10.4-9.4-16.4-13.2c-3-1.9-6-3.6-9.2-5.3s-6.4-3.1-9.7-4.3c-6.7-2.5-13.6-4.3-20.8-5.4c-14.3-2.1-29.5-1-44.6,3.4
				c-7.1,2-13.9,4.7-20.4,8.1l-7.3-18.4l-20.3-12.8c9.7-7.1,20.3-13,31.4-17.5c19.9-8.3,41.6-12.4,63.3-11.6
				c21.7,0.8,43.1,6.6,62.3,16.6c19.2,10,36.3,24.1,49.7,41.2c13.4,17.1,23.1,37.1,28,58.3C1250.7,809,1251.8,823.1,1251,837.1z"/>
		</g>
	</g>
</g>
<g>
	<g>
		<g>
			<path d="M-2638.7,287.4v-25c-9.4,0-18.8,0-28.1,0v-92.5h-32.7v117.5c31.2,0,62.3,0,93.5,0v-0.1H-2638.7z"/>
		</g>
		<g>
			<path d="M-2538.4,198.1c-5-8.9-12.1-15.8-21.4-20.7c-9.3-4.9-20.1-7.4-32.4-7.4h-46.5v28.3h44c9.6,0,17.1,2.6,22.5,7.9
				c5.4,5.3,8.2,12.7,8.2,22.4c0,9.6-2.7,16.9-8.2,22.2c-3.4,3.3-7.7,5.6-12.8,6.8v29.6c9.3-0.8,17.6-3.2,25-7.3
				c9.3-5.1,16.4-12,21.5-20.9c5.1-8.9,7.6-19,7.6-30.3C-2530.9,217.1-2533.4,207-2538.4,198.1z M-2638.7,287.4h32.6v-46.6h0v-21.5
				h-32.7V287.4z"/>
		</g>
	</g>
	<g>
		<path d="M-2705.6,2222.4h13.4v7.1h-21.6v-44.9h8.2V2222.4z"/>
		<path d="M-2686.4,2188.1c-1-1-1.4-2.3-1.4-3.8c0-1.5,0.5-2.8,1.4-3.8c1-1,2.1-1.5,3.6-1.5c1.4,0,2.6,0.5,3.6,1.5s1.4,2.3,1.4,3.8
			c0,1.5-0.5,2.8-1.4,3.8c-1,1-2.1,1.5-3.6,1.5C-2684.3,2189.6-2685.5,2189.1-2686.4,2188.1z M-2678.8,2193.9v35.6h-8.2v-35.6
			H-2678.8z"/>
		<path d="M-2621.1,2197.4c2.4,2.7,3.6,6.4,3.6,11.2v20.9h-8.2v-19.7c0-2.8-0.6-4.9-1.9-6.4c-1.3-1.5-3-2.2-5.2-2.2s-4,0.7-5.3,2.2
			c-1.3,1.5-2,3.6-2,6.4v19.7h-8.2v-19.7c0-2.8-0.6-4.9-1.9-6.4c-1.3-1.5-3-2.2-5.2-2.2c-2.3,0-4,0.7-5.3,2.2c-1.3,1.5-2,3.6-2,6.4
			v19.7h-8.2v-35.6h8.2v4.3c1-1.5,2.4-2.7,4.1-3.5c1.7-0.9,3.5-1.3,5.5-1.3c2.5,0,4.8,0.6,6.8,1.8c2,1.2,3.5,2.9,4.6,5
			c1-2.1,2.6-3.7,4.6-4.9c2-1.2,4.2-1.9,6.5-1.9C-2626.7,2193.4-2623.5,2194.7-2621.1,2197.4z"/>
		<path d="M-2609.1,2188.1c-1-1-1.4-2.3-1.4-3.8c0-1.5,0.5-2.8,1.4-3.8c1-1,2.1-1.5,3.6-1.5c1.4,0,2.6,0.5,3.6,1.5s1.4,2.3,1.4,3.8
			c0,1.5-0.5,2.8-1.4,3.8c-1,1-2.1,1.5-3.6,1.5C-2607,2189.6-2608.2,2189.1-2609.1,2188.1z M-2601.5,2193.9v35.6h-8.2v-35.6H-2601.5
			z"/>
		<path d="M-2584,2201.3v17.2c0,1.2,0.3,2.1,0.8,2.6c0.5,0.5,1.4,0.8,2.7,0.8h3.8v7.6h-5.1c-6.9,0-10.3-3.7-10.3-11.1v-17.2h-3.8
			v-7.4h3.8v-8.8h8.2v8.8h7.2v7.4H-2584z"/>
		<path d="M-2562.7,2181.9v47.6h-8.2v-47.6H-2562.7z"/>
		<path d="M-2524.9,2214.4h-23.6c0.2,2.6,1,4.6,2.4,6c1.4,1.5,3.2,2.2,5.3,2.2c3,0,5.2-1.4,6.5-4.3h8.8c-0.9,3.4-2.7,6.2-5.4,8.5
			c-2.6,2.2-5.9,3.3-9.7,3.3c-3.1,0-5.9-0.8-8.4-2.3c-2.5-1.5-4.4-3.7-5.8-6.5c-1.4-2.8-2.1-6-2.1-9.6c0-3.7,0.7-6.9,2-9.7
			c1.4-2.8,3.3-4.9,5.7-6.4c2.4-1.5,5.3-2.2,8.5-2.2c3.1,0,5.8,0.7,8.2,2.2c2.4,1.5,4.3,3.5,5.7,6.2c1.3,2.7,2,5.8,2,9.2
			C-2524.6,2212.2-2524.7,2213.4-2524.9,2214.4z M-2533.1,2208.3c0-2.3-0.8-4.2-2.3-5.6c-1.5-1.4-3.3-2.1-5.4-2.1
			c-2,0-3.7,0.7-5.1,2c-1.4,1.3-2.2,3.2-2.5,5.6H-2533.1z"/>
		<path d="M-2513.4,2228.5c-2.1-1-3.8-2.5-5-4.3c-1.2-1.8-1.9-3.8-2-6h8.2c0.2,1.4,0.8,2.5,1.8,3.4c1.1,0.9,2.4,1.3,4,1.3
			c1.6,0,2.8-0.3,3.6-1c0.9-0.7,1.3-1.6,1.3-2.6c0-1.2-0.5-2-1.6-2.6c-1.1-0.6-2.8-1.2-5.1-1.9c-2.4-0.6-4.4-1.3-5.9-2
			c-1.5-0.7-2.9-1.7-4-3.1s-1.7-3.3-1.7-5.7c0-2,0.5-3.8,1.5-5.4c1-1.6,2.5-2.9,4.4-3.9c1.9-0.9,4.2-1.4,6.8-1.4
			c3.8,0,6.9,1.1,9.2,3.2c2.3,2.1,3.6,5,3.8,8.6h-7.8c-0.1-1.4-0.7-2.5-1.6-3.4c-1-0.8-2.2-1.3-3.8-1.3c-1.5,0-2.6,0.3-3.4,0.9
			c-0.8,0.6-1.2,1.4-1.2,2.5c0,1.2,0.5,2.1,1.6,2.7c1.1,0.6,2.8,1.3,5.1,1.9c2.3,0.6,4.3,1.3,5.8,2s2.8,1.7,3.9,3.2
			c1.1,1.4,1.7,3.3,1.7,5.7c0,2.1-0.5,3.9-1.5,5.5c-1,1.6-2.5,2.9-4.4,3.8c-1.9,0.9-4.2,1.4-6.7,1.4
			C-2509,2230.1-2511.3,2229.5-2513.4,2228.5z"/>
		<path d="M-2481.7,2228.5c-2.1-1-3.8-2.5-5-4.3c-1.2-1.8-1.9-3.8-2-6h8.2c0.2,1.4,0.8,2.5,1.8,3.4c1.1,0.9,2.4,1.3,4,1.3
			c1.6,0,2.8-0.3,3.6-1c0.9-0.7,1.3-1.6,1.3-2.6c0-1.2-0.5-2-1.6-2.6c-1.1-0.6-2.8-1.2-5.1-1.9c-2.4-0.6-4.4-1.3-5.9-2
			c-1.5-0.7-2.9-1.7-4-3.1s-1.7-3.3-1.7-5.7c0-2,0.5-3.8,1.5-5.4c1-1.6,2.5-2.9,4.4-3.9c1.9-0.9,4.2-1.4,6.8-1.4
			c3.8,0,6.9,1.1,9.2,3.2c2.3,2.1,3.6,5,3.8,8.6h-7.8c-0.1-1.4-0.7-2.5-1.6-3.4c-1-0.8-2.2-1.3-3.8-1.3c-1.5,0-2.6,0.3-3.4,0.9
			c-0.8,0.6-1.2,1.4-1.2,2.5c0,1.2,0.5,2.1,1.6,2.7c1.1,0.6,2.8,1.3,5.1,1.9c2.3,0.6,4.3,1.3,5.8,2s2.8,1.7,3.9,3.2
			c1.1,1.4,1.7,3.3,1.7,5.7c0,2.1-0.5,3.9-1.5,5.5c-1,1.6-2.5,2.9-4.4,3.8c-1.9,0.9-4.2,1.4-6.7,1.4
			C-2477.2,2230.1-2479.6,2229.5-2481.7,2228.5z"/>
		<path d="M-2415.8,2187.4c3.2,1.8,5.8,4.5,7.5,7.9c1.8,3.4,2.7,7.4,2.7,11.9s-0.9,8.4-2.7,11.8c-1.8,3.4-4.3,6-7.5,7.8
			c-3.2,1.8-7,2.8-11.3,2.8h-14.2v-44.9h14.2C-2422.8,2184.6-2419,2185.6-2415.8,2187.4z M-2417.4,2218c2.3-2.6,3.5-6.2,3.5-10.9
			c0-4.7-1.2-8.3-3.5-11c-2.3-2.6-5.6-4-9.9-4h-5.8v29.6h5.8C-2423.1,2221.8-2419.8,2220.6-2417.4,2218z"/>
		<path d="M-2369.7,2214.4h-23.6c0.2,2.6,1,4.6,2.4,6c1.4,1.5,3.2,2.2,5.3,2.2c3,0,5.2-1.4,6.5-4.3h8.8c-0.9,3.4-2.7,6.2-5.4,8.5
			c-2.6,2.2-5.9,3.3-9.7,3.3c-3.1,0-5.9-0.8-8.4-2.3c-2.5-1.5-4.4-3.7-5.8-6.5c-1.4-2.8-2.1-6-2.1-9.6c0-3.7,0.7-6.9,2-9.7
			c1.4-2.8,3.3-4.9,5.7-6.4c2.4-1.5,5.3-2.2,8.5-2.2c3.1,0,5.8,0.7,8.2,2.2c2.4,1.5,4.3,3.5,5.7,6.2c1.3,2.7,2,5.8,2,9.2
			C-2369.5,2212.2-2369.6,2213.4-2369.7,2214.4z M-2377.9,2208.3c0-2.3-0.8-4.2-2.3-5.6c-1.5-1.4-3.3-2.1-5.4-2.1
			c-2,0-3.7,0.7-5.1,2c-1.4,1.3-2.2,3.2-2.5,5.6H-2377.9z"/>
		<path d="M-2358.3,2228.5c-2.1-1-3.8-2.5-5-4.3c-1.2-1.8-1.9-3.8-2-6h8.2c0.2,1.4,0.8,2.5,1.8,3.4c1.1,0.9,2.4,1.3,4,1.3
			c1.6,0,2.8-0.3,3.6-1c0.9-0.7,1.3-1.6,1.3-2.6c0-1.2-0.5-2-1.6-2.6c-1.1-0.6-2.8-1.2-5.1-1.9c-2.4-0.6-4.4-1.3-5.9-2
			c-1.5-0.7-2.9-1.7-4-3.1s-1.7-3.3-1.7-5.7c0-2,0.5-3.8,1.5-5.4c1-1.6,2.5-2.9,4.4-3.9c1.9-0.9,4.2-1.4,6.8-1.4
			c3.8,0,6.9,1.1,9.2,3.2c2.3,2.1,3.6,5,3.8,8.6h-7.8c-0.1-1.4-0.7-2.5-1.6-3.4c-1-0.8-2.2-1.3-3.8-1.3c-1.5,0-2.6,0.3-3.4,0.9
			c-0.8,0.6-1.2,1.4-1.2,2.5c0,1.2,0.5,2.1,1.6,2.7s2.8,1.3,5.1,1.9c2.3,0.6,4.3,1.3,5.8,2s2.8,1.7,3.9,3.2c1.1,1.4,1.7,3.3,1.7,5.7
			c0,2.1-0.5,3.9-1.5,5.5c-1,1.6-2.5,2.9-4.4,3.8c-1.9,0.9-4.2,1.4-6.7,1.4C-2353.8,2230.1-2356.2,2229.5-2358.3,2228.5z"/>
		<path d="M-2331.2,2188.1c-1-1-1.4-2.3-1.4-3.8c0-1.5,0.5-2.8,1.4-3.8s2.1-1.5,3.6-1.5c1.4,0,2.6,0.5,3.6,1.5c1,1,1.4,2.3,1.4,3.8
			c0,1.5-0.5,2.8-1.4,3.8c-1,1-2.1,1.5-3.6,1.5C-2329.1,2189.6-2330.3,2189.1-2331.2,2188.1z M-2323.6,2193.9v35.6h-8.2v-35.6
			H-2323.6z"/>
		<path d="M-2296.6,2194.9c1.8,1,3.3,2.4,4.3,4.1v-5.1h8.2v35.9c0,3.3-0.6,6.2-1.8,8.8c-1.2,2.6-3,4.6-5.4,6.2
			c-2.4,1.5-5.3,2.3-8.7,2.3c-4.6,0-8.3-1.2-11.3-3.5c-2.9-2.4-4.6-5.6-5-9.6h8.1c0.4,1.6,1.3,2.9,2.8,3.9c1.4,1,3.1,1.4,5.2,1.4
			c2.4,0,4.3-0.8,5.8-2.3c1.5-1.6,2.2-3.9,2.2-7.1v-5.5c-1,1.7-2.5,3.1-4.3,4.2c-1.8,1.1-4,1.7-6.3,1.7c-2.7,0-5.2-0.8-7.5-2.3
			c-2.3-1.5-4-3.7-5.3-6.5c-1.3-2.8-2-6-2-9.7c0-3.6,0.7-6.8,2-9.6c1.3-2.8,3.1-4.9,5.3-6.4c2.2-1.5,4.7-2.2,7.5-2.2
			C-2300.5,2193.3-2298.4,2193.8-2296.6,2194.9z M-2293.4,2206.1c-0.8-1.6-1.8-2.8-3.1-3.6c-1.3-0.8-2.7-1.3-4.3-1.3
			s-2.9,0.4-4.2,1.2c-1.3,0.8-2.3,2-3.1,3.6c-0.8,1.6-1.2,3.4-1.2,5.6c0,2.1,0.4,4,1.2,5.6s1.8,2.8,3.1,3.7c1.3,0.9,2.7,1.3,4.2,1.3
			c1.5,0,2.9-0.4,4.3-1.3c1.3-0.8,2.4-2,3.1-3.6c0.8-1.6,1.2-3.4,1.2-5.6S-2292.6,2207.6-2293.4,2206.1z"/>
		<path d="M-2248.8,2197.4c2.4,2.7,3.6,6.4,3.6,11.2v20.9h-8.2v-19.7c0-2.8-0.6-5-1.9-6.5s-3-2.3-5.2-2.3c-2.3,0-4,0.8-5.3,2.3
			c-1.3,1.5-2,3.7-2,6.5v19.7h-8.2v-35.6h8.2v4.4c1.1-1.5,2.5-2.8,4.2-3.6c1.7-0.9,3.5-1.3,5.6-1.3
			C-2254.3,2193.4-2251.2,2194.7-2248.8,2197.4z"/>
	</g>
	<g>
		<path d="M-1095.2,2206.9c1.9,1,3.4,2.4,4.4,4.2c1,1.8,1.6,3.9,1.6,6.4s-0.5,4.5-1.6,6.3c-1,1.8-2.5,3.2-4.4,4.2
			c-1.9,1-4.1,1.5-6.7,1.5h-8.4v-24h8.4C-1099.4,2205.5-1097.2,2205.9-1095.2,2206.9z M-1096.2,2223.3c1.4-1.4,2.1-3.3,2.1-5.8
			s-0.7-4.5-2.1-5.9c-1.4-1.4-3.3-2.1-5.9-2.1h-3.4v15.9h3.4C-1099.5,2225.4-1097.6,2224.7-1096.2,2223.3z"/>
		<path d="M-1068,2221.4h-13.9c0.1,1.4,0.6,2.5,1.4,3.2c0.8,0.8,1.9,1.2,3.1,1.2c1.8,0,3.1-0.8,3.8-2.3h5.2
			c-0.6,1.8-1.6,3.3-3.2,4.5c-1.6,1.2-3.5,1.8-5.8,1.8c-1.8,0-3.5-0.4-4.9-1.2c-1.5-0.8-2.6-2-3.4-3.5s-1.2-3.2-1.2-5.2
			c0-2,0.4-3.7,1.2-5.2c0.8-1.5,1.9-2.6,3.4-3.4c1.4-0.8,3.1-1.2,5-1.2c1.8,0,3.4,0.4,4.9,1.2c1.4,0.8,2.5,1.9,3.3,3.3
			c0.8,1.4,1.2,3.1,1.2,4.9C-1067.9,2220.2-1067.9,2220.8-1068,2221.4z M-1072.9,2218.2c0-1.2-0.5-2.2-1.3-3
			c-0.9-0.7-1.9-1.1-3.2-1.1c-1.2,0-2.2,0.4-3,1.1c-0.8,0.7-1.3,1.7-1.5,3H-1072.9z"/>
		<path d="M-1061.3,2229c-1.2-0.6-2.2-1.3-2.9-2.3s-1.1-2-1.2-3.2h4.9c0.1,0.7,0.5,1.3,1.1,1.8c0.6,0.5,1.4,0.7,2.4,0.7
			c0.9,0,1.6-0.2,2.2-0.6s0.8-0.8,0.8-1.4c0-0.6-0.3-1.1-0.9-1.4c-0.6-0.3-1.6-0.6-3-1c-1.4-0.3-2.6-0.7-3.5-1.1s-1.7-0.9-2.3-1.7
			s-1-1.8-1-3.1c0-1.1,0.3-2,0.9-2.9s1.5-1.6,2.6-2.1s2.5-0.8,4-0.8c2.3,0,4.1,0.6,5.4,1.7c1.4,1.1,2.1,2.7,2.2,4.6h-4.6
			c-0.1-0.8-0.4-1.4-0.9-1.8c-0.6-0.4-1.3-0.7-2.3-0.7c-0.9,0-1.5,0.2-2,0.5s-0.7,0.8-0.7,1.3c0,0.6,0.3,1.1,1,1.5
			c0.6,0.3,1.6,0.7,3,1c1.4,0.3,2.5,0.7,3.4,1.1s1.7,0.9,2.3,1.7c0.7,0.8,1,1.8,1,3c0,1.1-0.3,2.1-0.9,3c-0.6,0.9-1.5,1.6-2.6,2
			c-1.1,0.5-2.5,0.7-4,0.7C-1058.6,2229.8-1060,2229.5-1061.3,2229z"/>
		<path d="M-1045.3,2207.3c-0.6-0.5-0.8-1.2-0.8-2s0.3-1.5,0.8-2c0.6-0.5,1.3-0.8,2.1-0.8c0.8,0,1.6,0.3,2.1,0.8
			c0.6,0.5,0.8,1.2,0.8,2s-0.3,1.5-0.8,2c-0.6,0.5-1.3,0.8-2.1,0.8C-1044,2208.1-1044.7,2207.9-1045.3,2207.3z M-1040.8,2210.4v19.1
			h-4.8v-19.1H-1040.8z"/>
		<path d="M-1024.8,2210.9c1.1,0.6,1.9,1.3,2.5,2.2v-2.7h4.9v19.2c0,1.8-0.4,3.3-1.1,4.7s-1.8,2.5-3.2,3.3c-1.4,0.8-3.1,1.2-5.2,1.2
			c-2.7,0-4.9-0.6-6.7-1.9c-1.7-1.3-2.7-3-2.9-5.2h4.8c0.3,0.9,0.8,1.6,1.6,2.1s1.9,0.8,3,0.8c1.4,0,2.5-0.4,3.4-1.3
			c0.9-0.8,1.3-2.1,1.3-3.8v-3c-0.6,0.9-1.5,1.6-2.6,2.2c-1.1,0.6-2.3,0.9-3.7,0.9c-1.6,0-3.1-0.4-4.4-1.2c-1.3-0.8-2.4-2-3.2-3.5
			c-0.8-1.5-1.2-3.2-1.2-5.2c0-1.9,0.4-3.6,1.2-5.1c0.8-1.5,1.8-2.6,3.1-3.4c1.3-0.8,2.8-1.2,4.4-1.2
			C-1027.1,2210.1-1025.9,2210.4-1024.8,2210.9z M-1022.9,2216.9c-0.5-0.8-1.1-1.5-1.9-1.9c-0.8-0.4-1.6-0.7-2.5-0.7
			c-0.9,0-1.7,0.2-2.5,0.7c-0.8,0.4-1.4,1.1-1.8,1.9s-0.7,1.8-0.7,3c0,1.1,0.2,2.2,0.7,3c0.5,0.9,1.1,1.5,1.9,2s1.6,0.7,2.5,0.7
			c0.9,0,1.7-0.2,2.5-0.7c0.8-0.4,1.4-1.1,1.9-1.9s0.7-1.8,0.7-3S-1022.5,2217.8-1022.9,2216.9z"/>
		<path d="M-996.6,2212.3c1.4,1.4,2.1,3.4,2.1,6v11.2h-4.8V2219c0-1.5-0.4-2.7-1.1-3.5c-0.8-0.8-1.8-1.2-3.1-1.2
			c-1.3,0-2.4,0.4-3.2,1.2c-0.8,0.8-1.2,2-1.2,3.5v10.5h-4.8v-19.1h4.8v2.4c0.6-0.8,1.5-1.5,2.5-1.9c1-0.5,2.1-0.7,3.3-0.7
			C-999.8,2210.1-998,2210.9-996.6,2212.3z"/>
		<path d="M-972.3,2221.4h-13.9c0.1,1.4,0.6,2.5,1.4,3.2s1.9,1.2,3.1,1.2c1.8,0,3.1-0.8,3.8-2.3h5.2c-0.6,1.8-1.6,3.3-3.2,4.5
			c-1.6,1.2-3.5,1.8-5.8,1.8c-1.8,0-3.5-0.4-4.9-1.2c-1.5-0.8-2.6-2-3.4-3.5s-1.2-3.2-1.2-5.2c0-2,0.4-3.7,1.2-5.2
			c0.8-1.5,1.9-2.6,3.4-3.4c1.4-0.8,3.1-1.2,5-1.2c1.8,0,3.4,0.4,4.9,1.2c1.4,0.8,2.5,1.9,3.3,3.3c0.8,1.4,1.2,3.1,1.2,4.9
			C-972.2,2220.2-972.2,2220.8-972.3,2221.4z M-977.2,2218.2c0-1.2-0.5-2.2-1.3-3s-1.9-1.1-3.2-1.1c-1.2,0-2.2,0.4-3,1.1
			c-0.8,0.7-1.3,1.7-1.5,3H-977.2z"/>
		<path d="M-968.8,2214.8c0.8-1.5,1.8-2.6,3.2-3.4c1.3-0.8,2.8-1.2,4.4-1.2c1.2,0,2.4,0.3,3.5,0.8c1.1,0.5,2,1.3,2.7,2.2v-9.1h4.9
			v25.5h-4.9v-2.8c-0.6,0.9-1.4,1.7-2.5,2.3s-2.3,0.9-3.8,0.9c-1.6,0-3.1-0.4-4.4-1.2s-2.4-2-3.2-3.5c-0.8-1.5-1.2-3.2-1.2-5.2
			C-969.9,2218-969.5,2216.2-968.8,2214.8z M-955.6,2216.9c-0.5-0.8-1.1-1.5-1.9-1.9c-0.8-0.4-1.6-0.7-2.5-0.7
			c-0.9,0-1.7,0.2-2.5,0.7c-0.8,0.4-1.4,1.1-1.8,1.9s-0.7,1.8-0.7,3c0,1.1,0.2,2.2,0.7,3c0.5,0.9,1.1,1.5,1.9,2
			c0.8,0.5,1.6,0.7,2.5,0.7c0.9,0,1.7-0.2,2.5-0.7c0.8-0.4,1.4-1.1,1.9-1.9s0.7-1.8,0.7-3S-955.1,2217.8-955.6,2216.9z"/>
		<path d="M-920.2,2219.2c0.9,1.1,1.3,2.4,1.3,3.8c0,1.3-0.3,2.4-0.9,3.4c-0.6,1-1.5,1.7-2.7,2.3s-2.6,0.8-4.2,0.8h-10.4v-24h9.9
			c1.6,0,3,0.3,4.2,0.8s2.1,1.3,2.7,2.2c0.6,0.9,0.9,2,0.9,3.2c0,1.4-0.4,2.6-1.1,3.5c-0.7,0.9-1.7,1.6-3,2
			C-922.2,2217.4-921,2218.1-920.2,2219.2z M-932.3,2215.4h4.4c1.1,0,2-0.3,2.7-0.8c0.6-0.5,0.9-1.3,0.9-2.2c0-1-0.3-1.7-0.9-2.2
			c-0.6-0.5-1.5-0.8-2.7-0.8h-4.4V2215.4z M-924.7,2224.7c0.7-0.6,1-1.3,1-2.3c0-1-0.3-1.8-1-2.4c-0.7-0.6-1.6-0.9-2.8-0.9h-4.8v6.5
			h4.9C-926.3,2225.6-925.4,2225.3-924.7,2224.7z"/>
		<path d="M-896.8,2210.4l-11.8,28.1h-5.1l4.1-9.5l-7.6-18.6h5.4l4.9,13.3l5-13.3H-896.8z"/>
		<path d="M-886,2214.7c-0.6-0.5-0.8-1.2-0.8-2c0-0.8,0.3-1.5,0.8-2s1.3-0.8,2.2-0.8c0.8,0,1.5,0.3,2.1,0.8c0.6,0.5,0.8,1.2,0.8,2
			c0,0.8-0.3,1.5-0.8,2c-0.6,0.5-1.2,0.8-2.1,0.8C-884.7,2215.5-885.4,2215.2-886,2214.7z M-886,2228.9c-0.6-0.5-0.8-1.2-0.8-2
			s0.3-1.5,0.8-2c0.6-0.5,1.3-0.8,2.2-0.8c0.8,0,1.5,0.3,2.1,0.8c0.6,0.5,0.8,1.2,0.8,2s-0.3,1.5-0.8,2c-0.6,0.5-1.2,0.8-2.1,0.8
			C-884.7,2229.7-885.4,2229.5-886,2228.9z"/>
		<path d="M-853.7,2206.9c1.9,1,3.4,2.4,4.4,4.2c1,1.8,1.6,3.9,1.6,6.4s-0.5,4.5-1.6,6.3c-1,1.8-2.5,3.2-4.4,4.2
			c-1.9,1-4.1,1.5-6.7,1.5h-8.4v-24h8.4C-857.8,2205.5-855.6,2205.9-853.7,2206.9z M-854.7,2223.3c1.4-1.4,2.1-3.3,2.1-5.8
			s-0.7-4.5-2.1-5.9c-1.4-1.4-3.3-2.1-5.9-2.1h-3.4v15.9h3.4C-858,2225.4-856,2224.7-854.7,2223.3z"/>
		<path d="M-826.5,2221.4h-13.9c0.1,1.4,0.6,2.5,1.4,3.2s1.9,1.2,3.1,1.2c1.8,0,3.1-0.8,3.8-2.3h5.2c-0.6,1.8-1.6,3.3-3.2,4.5
			c-1.6,1.2-3.5,1.8-5.8,1.8c-1.8,0-3.5-0.4-4.9-1.2c-1.5-0.8-2.6-2-3.4-3.5s-1.2-3.2-1.2-5.2c0-2,0.4-3.7,1.2-5.2
			c0.8-1.5,1.9-2.6,3.4-3.4c1.4-0.8,3.1-1.2,5-1.2c1.8,0,3.4,0.4,4.9,1.2c1.4,0.8,2.5,1.9,3.3,3.3c0.8,1.4,1.2,3.1,1.2,4.9
			C-826.3,2220.2-826.4,2220.8-826.5,2221.4z M-831.3,2218.2c0-1.2-0.5-2.2-1.3-3s-1.9-1.1-3.2-1.1c-1.2,0-2.2,0.4-3,1.1
			c-0.8,0.7-1.3,1.7-1.5,3H-831.3z"/>
		<path d="M-814.8,2225l4.8-14.6h5.1l-7.1,19.1h-5.9l-7-19.1h5.2L-814.8,2225z"/>
		<path d="M-777.4,2216.5c-0.6,1.1-1.6,2-2.9,2.7c-1.3,0.7-2.9,1-4.9,1h-4v9.2h-4.8v-24h8.8c1.9,0,3.4,0.3,4.8,1
			c1.3,0.6,2.3,1.5,2.9,2.7s1,2.4,1,3.8C-776.5,2214.2-776.8,2215.4-777.4,2216.5z M-782.4,2215.5c0.6-0.6,1-1.5,1-2.6
			c0-2.3-1.3-3.5-3.9-3.5h-3.8v7h3.8C-784,2216.4-783,2216.1-782.4,2215.5z"/>
		<path d="M-765.8,2211c1-0.6,2.1-0.9,3.4-0.9v5.1h-1.3c-1.5,0-2.7,0.4-3.4,1.1c-0.8,0.7-1.2,2-1.2,3.7v9.5h-4.8v-19.1h4.8v3
			C-767.6,2212.4-766.8,2211.6-765.8,2211z"/>
		<path d="M-759.2,2214.8c0.8-1.5,1.8-2.6,3.1-3.4c1.3-0.8,2.8-1.2,4.4-1.2c1.4,0,2.7,0.3,3.7,0.9c1.1,0.6,1.9,1.3,2.6,2.2v-2.7h4.9
			v19.1h-4.9v-2.8c-0.6,0.9-1.5,1.6-2.6,2.2c-1.1,0.6-2.3,0.9-3.8,0.9c-1.6,0-3.1-0.4-4.4-1.2c-1.3-0.8-2.4-2-3.1-3.5
			c-0.8-1.5-1.2-3.2-1.2-5.2C-760.4,2218-760,2216.2-759.2,2214.8z M-746.1,2216.9c-0.5-0.8-1.1-1.5-1.9-1.9
			c-0.8-0.4-1.6-0.7-2.5-0.7c-0.9,0-1.7,0.2-2.5,0.7c-0.8,0.4-1.4,1.1-1.8,1.9s-0.7,1.8-0.7,3c0,1.1,0.2,2.2,0.7,3
			c0.5,0.9,1.1,1.5,1.9,2s1.6,0.7,2.5,0.7c0.9,0,1.7-0.2,2.5-0.7c0.8-0.4,1.4-1.1,1.9-1.9s0.7-1.8,0.7-3S-745.6,2217.8-746.1,2216.9
			z"/>
		<path d="M-724.5,2229.5l-6.5-8.1v8.1h-4.8V2204h4.8v14.5l6.4-8.1h6.3l-8.4,9.6l8.5,9.5H-724.5z"/>
		<path d="M-715.8,2214.8c0.8-1.5,1.8-2.6,3.1-3.4c1.3-0.8,2.8-1.2,4.4-1.2c1.4,0,2.7,0.3,3.7,0.9c1.1,0.6,1.9,1.3,2.6,2.2v-2.7h4.9
			v19.1h-4.9v-2.8c-0.6,0.9-1.5,1.6-2.6,2.2c-1.1,0.6-2.3,0.9-3.8,0.9c-1.6,0-3.1-0.4-4.4-1.2c-1.3-0.8-2.4-2-3.1-3.5
			c-0.8-1.5-1.2-3.2-1.2-5.2C-716.9,2218-716.5,2216.2-715.8,2214.8z M-702.6,2216.9c-0.5-0.8-1.1-1.5-1.9-1.9
			c-0.8-0.4-1.6-0.7-2.5-0.7c-0.9,0-1.7,0.2-2.5,0.7c-0.8,0.4-1.4,1.1-1.8,1.9s-0.7,1.8-0.7,3c0,1.1,0.2,2.2,0.7,3
			c0.5,0.9,1.1,1.5,1.9,2s1.6,0.7,2.5,0.7c0.9,0,1.7-0.2,2.5-0.7c0.8-0.4,1.4-1.1,1.9-1.9s0.7-1.8,0.7-3S-702.1,2217.8-702.6,2216.9
			z"/>
		<path d="M-689.2,2229c-1.2-0.6-2.2-1.3-2.9-2.3c-0.7-1-1.1-2-1.2-3.2h4.9c0.1,0.7,0.5,1.3,1.1,1.8c0.6,0.5,1.4,0.7,2.4,0.7
			c0.9,0,1.6-0.2,2.2-0.6c0.5-0.4,0.8-0.8,0.8-1.4c0-0.6-0.3-1.1-0.9-1.4c-0.6-0.3-1.6-0.6-3-1c-1.4-0.3-2.6-0.7-3.5-1.1
			c-0.9-0.4-1.7-0.9-2.3-1.7s-1-1.8-1-3.1c0-1.1,0.3-2,0.9-2.9c0.6-0.9,1.5-1.6,2.6-2.1c1.1-0.5,2.5-0.8,4-0.8
			c2.3,0,4.1,0.6,5.4,1.7c1.4,1.1,2.1,2.7,2.2,4.6h-4.6c-0.1-0.8-0.4-1.4-0.9-1.8c-0.6-0.4-1.3-0.7-2.3-0.7c-0.9,0-1.5,0.2-2,0.5
			s-0.7,0.8-0.7,1.3c0,0.6,0.3,1.1,1,1.5c0.6,0.3,1.6,0.7,3,1c1.4,0.3,2.5,0.7,3.4,1.1c0.9,0.4,1.7,0.9,2.3,1.7c0.7,0.8,1,1.8,1,3
			c0,1.1-0.3,2.1-0.9,3c-0.6,0.9-1.5,1.6-2.6,2c-1.1,0.5-2.5,0.7-4,0.7C-686.6,2229.8-688,2229.5-689.2,2229z"/>
		<path d="M-659,2211.1c1.1,0.6,2,1.6,2.6,2.8c0.6,1.2,0.9,2.7,0.9,4.4v11.2h-4.8V2219c0-1.5-0.4-2.7-1.1-3.5
			c-0.8-0.8-1.8-1.2-3.1-1.2c-1.3,0-2.4,0.4-3.2,1.2c-0.8,0.8-1.2,2-1.2,3.5v10.5h-4.8V2204h4.8v8.8c0.6-0.8,1.4-1.5,2.5-1.9
			c1-0.5,2.2-0.7,3.4-0.7C-661.4,2210.1-660.1,2210.5-659,2211.1z"/>
	</g>
</g>
</svg>
